<?xml version="1.0" encoding="UTF-8" standalone="no"?>
<svg width="19px" height="19px" viewBox="0 0 19 19" version="1.1" xmlns="http://www.w3.org/2000/svg" xmlns:xlink="http://www.w3.org/1999/xlink" xmlns:sketch="http://www.bohemiancoding.com/sketch/ns">
    <!-- Generator: Sketch 3.4.2 (15855) - http://www.bohemiancoding.com/sketch -->
    <title>bus</title>
    <desc>Created with Sketch.</desc>
    <defs></defs>
    <g id="Page-1" stroke="none" stroke-width="1" fill="none" fill-rule="evenodd" sketch:type="MSPage">
        <ellipse id="Oval-12" fill="#FFFFFF" sketch:type="MSShapeGroup" cx="9.5" cy="9.5" rx="8" ry="8"></ellipse>
        <circle id="Oval-12" fill="#3A88E3" sketch:type="MSShapeGroup" cx="9.5" cy="9.5" r="6.5"></circle>
        <path d="M8,5.3622 L8,6.3622 L6.5,6.3622 C6.25,6.3622 6,6.6122 6,6.8622 L6,9.8622 L6,12.3622 L6,12.8622 L6,13.3622 L7,13.3622 L7,14.3622 L8,14.3622 L8,13.3622 L11,13.3622 L11,14.3622 L12,14.3622 L12,13.3622 L13,13.3622 L13,12.8622 L13,12.3622 L13,9.8622 L13,6.8622 C13,6.6122 12.75,6.3622 12.5,6.3622 L11,6.3622 L11,5.3622 L8,5.3622 Z M7,7.3622 L12,7.3622 L12,10.3622 L7,10.3622 L7,7.3622 Z M7.5,11.3622 C7.777,11.3622 8,11.5852 8,11.8622 C8,12.1392 7.777,12.3622 7.5,12.3622 C7.223,12.3622 7,12.1392 7,11.8622 C7,11.5852 7.223,11.3622 7.5,11.3622 L7.5,11.3622 Z M11.5,11.3622 C11.777,11.3622 12,11.5852 12,11.8622 C12,12.1392 11.777,12.3622 11.5,12.3622 C11.223,12.3622 11,12.1392 11,11.8622 C11,11.5852 11.223,11.3622 11.5,11.3622 L11.5,11.3622 Z" id="path8522-6-8-5" fill="#FFFFFF" sketch:type="MSShapeGroup"></path>
    </g>
</svg>